<svg width="450" height="450" viewBox="0 0 450 450" fill="none" xmlns="http://www.w3.org/2000/svg">
<g clip-path="url(#clip0_1558_245)">
<rect width="450" height="450" fill="white"/>
<path d="M2 433L18.408 400.072H29.44L45.792 433H37.168L33.864 425.888H13.816L10.176 433H2ZM15.832 420.4H31.792L24.12 405.112H23.56L15.832 420.4ZM56.3327 433.56C52.9354 433.56 50.5647 432.645 49.2207 430.816C47.8767 428.987 47.2047 426.56 47.2047 423.536V400.072H54.5967V423.76C54.5967 425.515 55.026 426.691 55.8847 427.288C56.7434 427.885 57.8074 428.184 59.0767 428.184H70.9487C72.1434 428.184 73.1887 427.885 74.0847 427.288C74.9807 426.653 75.4287 425.477 75.4287 423.76V400.072H82.8207V423.536C82.8207 425.552 82.5407 427.307 81.9807 428.8C81.4207 430.293 80.4874 431.469 79.1807 432.328C77.874 433.149 76.0634 433.56 73.7487 433.56H56.3327ZM99.9357 433L99.8797 405.392H85.3197V400.016H121.944V405.392H107.328V433H99.9357ZM135.01 433C132.397 433 130.344 432.627 128.85 431.88C127.357 431.133 126.293 430.013 125.658 428.52C125.061 427.027 124.762 425.179 124.762 422.976V410.04C124.762 407.875 125.061 406.064 125.658 404.608C126.256 403.115 127.301 401.995 128.794 401.248C130.288 400.464 132.36 400.072 135.01 400.072H151.362C153.976 400.072 156.01 400.464 157.467 401.248C158.96 401.995 160.005 403.115 160.603 404.608C161.237 406.064 161.555 407.875 161.555 410.04V422.976C161.555 426.261 160.827 428.763 159.371 430.48C157.915 432.16 155.245 433 151.362 433H135.01ZM136.634 427.624H149.794C151.176 427.624 152.24 427.269 152.986 426.56C153.77 425.851 154.163 424.88 154.163 423.648V409.368C154.163 408.285 153.77 407.371 152.986 406.624C152.203 405.84 151.139 405.448 149.794 405.448H136.634C135.29 405.448 134.208 405.803 133.386 406.512C132.565 407.221 132.154 408.173 132.154 409.368V423.648C132.154 424.917 132.546 425.907 133.33 426.616C134.152 427.288 135.253 427.624 136.634 427.624ZM168.267 433V404.552L167.707 400.016H192.515C194.905 400.016 196.771 400.333 198.115 400.968C199.497 401.603 200.505 402.443 201.139 403.488C201.811 404.496 202.241 405.579 202.427 406.736C202.614 407.893 202.707 408.995 202.707 410.04V413.344C202.707 414.203 202.577 415.173 202.315 416.256C202.054 417.301 201.569 418.328 200.859 419.336C200.15 420.307 199.123 421.128 197.779 421.8C196.435 422.435 194.681 422.752 192.515 422.752H186.803C184.451 422.752 182.249 422.696 180.195 422.584C178.179 422.472 176.667 422.379 175.659 422.304V433H168.267ZM175.659 417.376H190.891C192.571 417.376 193.729 416.965 194.363 416.144C194.998 415.323 195.315 414.333 195.315 413.176V409.648C195.315 408.453 194.998 407.445 194.363 406.624C193.729 405.803 192.59 405.392 190.947 405.392H175.659V417.376ZM244.072 433.56C242.578 433.56 241.104 433.336 239.648 432.888C238.229 432.403 236.605 431.245 234.776 429.416L230.744 425.384C229.101 423.704 227.29 422.472 225.312 421.688C223.37 420.904 220.925 420.512 217.976 420.512H216.24V433H208.848V404.552L208.288 400.016H233.096C235.485 400.016 237.352 400.333 238.696 400.968C240.077 401.603 241.085 402.443 241.72 403.488C242.392 404.496 242.821 405.579 243.008 406.736C243.194 407.893 243.288 408.995 243.288 410.04V411.104C243.288 411.925 243.176 412.84 242.952 413.848C242.728 414.856 242.298 415.845 241.664 416.816C241.029 417.787 240.114 418.608 238.92 419.28C237.762 419.952 236.232 420.344 234.328 420.456C234.813 420.717 235.429 421.128 236.176 421.688C236.922 422.211 237.688 422.789 238.472 423.424C239.293 424.059 240.04 424.637 240.712 425.16C241.384 425.683 241.906 426.056 242.28 426.28C243.624 427.064 244.818 427.605 245.864 427.904C246.909 428.203 247.768 428.371 248.44 428.408C249.112 428.445 249.504 428.464 249.616 428.464L248.496 433C248.16 433.112 247.6 433.224 246.816 433.336C246.032 433.485 245.117 433.56 244.072 433.56ZM224.64 415.416C226.058 415.416 227.328 415.397 228.448 415.36C229.568 415.285 230.576 415.211 231.472 415.136C233.114 414.949 234.253 414.501 234.888 413.792C235.56 413.045 235.896 412.093 235.896 410.936V409.648C235.896 408.453 235.578 407.445 234.944 406.624C234.309 405.803 233.17 405.392 231.528 405.392H216.24V415.136C217.882 415.248 219.394 415.323 220.776 415.36C222.157 415.397 223.445 415.416 224.64 415.416ZM262.111 433C259.497 433 257.444 432.627 255.951 431.88C254.457 431.133 253.393 430.013 252.759 428.52C252.161 427.027 251.863 425.179 251.863 422.976V410.04C251.863 407.875 252.161 406.064 252.759 404.608C253.356 403.115 254.401 401.995 255.895 401.248C257.388 400.464 259.46 400.072 262.111 400.072H278.463C281.076 400.072 283.111 400.464 284.567 401.248C286.06 401.995 287.105 403.115 287.703 404.608C288.337 406.064 288.655 407.875 288.655 410.04V422.976C288.655 426.261 287.927 428.763 286.471 430.48C285.015 432.16 282.345 433 278.463 433H262.111ZM263.735 427.624H276.895C278.276 427.624 279.34 427.269 280.087 426.56C280.871 425.851 281.263 424.88 281.263 423.648V409.368C281.263 408.285 280.871 407.371 280.087 406.624C279.303 405.84 278.239 405.448 276.895 405.448H263.735C262.391 405.448 261.308 405.803 260.487 406.512C259.665 407.221 259.255 408.173 259.255 409.368V423.648C259.255 424.917 259.647 425.907 260.431 426.616C261.252 427.288 262.353 427.624 263.735 427.624ZM306.064 433L306.008 405.392H291.448V400.016H328.072V405.392H313.456V433H306.064ZM331.451 433V400.072H366.283V405.448H338.843V413.176H359.787V418.72H338.843V427.624H366.507L368.747 432.384C368.747 432.533 368.243 432.683 367.235 432.832C366.227 432.944 364.491 433 362.027 433H331.451ZM381.774 433C379.123 433 377.051 432.627 375.558 431.88C374.064 431.133 373.019 430.013 372.422 428.52C371.824 427.027 371.526 425.179 371.526 422.976V410.488C371.526 406.904 372.328 404.272 373.934 402.592C375.539 400.875 378.152 400.016 381.774 400.016H398.63C401.206 400.016 403.166 400.165 404.51 400.464C405.891 400.725 406.582 401.005 406.582 401.304L405.462 405.952C404.827 405.84 402.942 405.728 399.806 405.616C396.707 405.467 392.19 405.392 386.254 405.392H383.398C380.411 405.392 378.918 406.717 378.918 409.368V423.648C378.918 424.917 379.235 425.907 379.87 426.616C380.542 427.288 381.718 427.624 383.398 427.624H385.694C391.891 427.624 396.688 427.568 400.086 427.456C403.52 427.307 405.648 427.157 406.47 427.008L408.766 430.704C408.766 430.891 408.448 431.171 407.814 431.544C407.216 431.917 406.096 432.253 404.454 432.552C402.811 432.851 400.44 433 397.342 433H381.774ZM423.375 433L423.319 405.392H408.759V400.016H445.383V405.392H430.767V433H423.375Z" fill="#0F172A"/>
<rect width="450" height="384" fill="#0F172A"/>
<path d="M0 260.881C0 328.878 55.1013 384 123.072 384C138.955 384 154.134 380.99 168.072 375.51V328.258C155.346 336.747 140.058 341.695 123.614 341.695C79.2986 341.695 43.3735 305.756 43.3735 261.424C43.3735 217.091 79.2986 181.153 123.614 181.153C167.93 181.153 203.855 217.091 203.855 261.424V353.767C229.767 331.196 246.145 297.952 246.145 260.881L247.229 123.661C247.229 79.3285 283.154 43.3898 327.47 43.3898C371.786 43.3898 407.711 79.3285 407.711 123.661C407.711 167.994 371.786 203.932 327.47 203.932C311.027 203.932 295.738 198.984 283.012 190.496V238.168C296.652 243.381 311.456 246.237 326.928 246.237C394.899 246.237 450 191.115 450 123.119C450 55.1221 394.899 0 326.928 0C258.957 0 203.855 55.1221 203.855 123.119L204.016 168.136C182.379 149.222 154.063 137.763 123.072 137.763C55.1013 137.763 0 192.885 0 260.881Z" fill="#F8FAFC"/>
<path d="M168.072 261.424C168.072 285.986 148.168 305.898 123.614 305.898C99.0611 305.898 79.1566 285.986 79.1566 261.424C79.1566 236.861 99.0611 216.949 123.614 216.949C148.168 216.949 168.072 236.861 168.072 261.424Z" fill="#F8FAFC"/>
<path d="M371.928 123.661C371.928 148.224 352.023 168.136 327.47 168.136C302.916 168.136 283.012 148.224 283.012 123.661C283.012 99.0984 302.916 79.1864 327.47 79.1864C352.023 79.1864 371.928 99.0984 371.928 123.661Z" fill="#F8FAFC"/>
</g>
<defs>
<clipPath id="clip0_1558_245">
<rect width="450" height="450" fill="white"/>
</clipPath>
</defs>
</svg>
