<svg width="1034" height="1034" viewBox="0 0 1034 1034" fill="none" xmlns="http://www.w3.org/2000/svg">
<g filter="url(#filter0_d_1488_247)">
<path fill-rule="evenodd" clip-rule="evenodd" d="M1029 318.915C1029 306.759 1029 294.601 1028.93 282.444C1028.87 272.203 1028.75 261.964 1028.47 251.728C1027.87 229.417 1026.56 206.916 1022.59 184.854C1018.56 162.474 1011.99 141.645 1001.64 121.31C991.456 101.323 978.158 83.0344 962.291 67.1786C946.428 51.3228 928.134 38.0333 908.14 27.8592C887.785 17.5011 866.933 10.9322 844.528 6.90949C822.464 2.94772 799.956 1.63417 777.646 1.03145C767.402 0.754327 757.158 0.637512 746.912 0.574134C734.749 0.499571 722.585 0.505785 710.421 0.505785L569.19 0H463.56L324.827 0.505785C312.64 0.505785 300.453 0.499571 288.266 0.574134C277.998 0.637512 267.736 0.754327 257.473 1.03145C235.11 1.63417 212.551 2.94896 190.435 6.9157C168 10.9371 147.117 17.5036 126.735 27.8542C106.698 38.0295 88.3647 51.3204 72.4679 67.1786C56.5737 83.0332 43.2506 101.318 33.0517 121.301C22.6676 141.646 16.0837 162.487 12.0499 184.88C8.07819 206.933 6.76216 229.427 6.15696 251.728C5.88108 261.965 5.76178 272.204 5.69965 282.444C5.62508 294.603 5 309.705 5 321.863L5.00373 458.673L5 565.435L5.6313 705.152C5.6313 717.326 5.62633 729.499 5.69965 741.673C5.76178 751.928 5.88108 762.18 6.15821 772.431C6.76216 794.77 8.08068 817.304 12.0561 839.396C16.0887 861.806 22.6713 882.665 33.0467 903.026C43.2469 923.041 56.5724 941.353 72.4679 957.232C88.3634 973.11 106.692 986.417 126.725 996.606C147.12 1006.98 168.012 1013.55 190.461 1017.58C212.567 1021.55 235.119 1022.87 257.473 1023.47C267.736 1023.75 278 1023.86 288.267 1023.93C300.454 1024 312.64 1024 324.827 1024L464.814 1024H570.706L710.421 1024C722.585 1024 734.749 1024 746.912 1023.93C757.158 1023.86 767.402 1023.75 777.646 1023.47C799.965 1022.87 822.48 1021.55 844.554 1017.58C866.946 1013.55 887.787 1006.97 908.132 996.609C928.129 986.422 946.427 973.112 962.291 957.232C978.156 941.356 991.453 923.046 1001.63 903.034C1011.99 882.664 1018.57 861.795 1022.59 839.37C1026.56 817.287 1027.87 794.762 1028.47 772.431C1028.75 762.179 1028.87 751.926 1028.93 741.673C1029.01 729.499 1029 717.326 1029 705.152C1029 705.152 1028.99 567.902 1028.99 565.435V458.561C1028.99 456.74 1029 318.915 1029 318.915" fill="#040048"/>
</g>
<mask id="mask0_1488_247" style="mask-type:luminance" maskUnits="userSpaceOnUse" x="5" y="0" width="1024" height="1024">
<path fill-rule="evenodd" clip-rule="evenodd" d="M1029 318.915C1029 306.759 1029 294.601 1028.93 282.444C1028.87 272.203 1028.75 261.964 1028.47 251.728C1027.87 229.417 1026.56 206.916 1022.59 184.854C1018.56 162.474 1011.99 141.645 1001.64 121.31C991.456 101.323 978.158 83.0344 962.291 67.1786C946.428 51.3228 928.134 38.0333 908.14 27.8592C887.785 17.5011 866.933 10.9322 844.528 6.90949C822.464 2.94772 799.956 1.63417 777.646 1.03145C767.402 0.754327 757.158 0.637512 746.912 0.574134C734.749 0.499571 722.585 0.505785 710.421 0.505785L569.19 0H463.56L324.827 0.505785C312.64 0.505785 300.453 0.499571 288.266 0.574134C277.998 0.637512 267.736 0.754327 257.473 1.03145C235.11 1.63417 212.551 2.94896 190.435 6.9157C168 10.9371 147.117 17.5036 126.735 27.8542C106.698 38.0295 88.3647 51.3204 72.4679 67.1786C56.5737 83.0332 43.2506 101.318 33.0517 121.301C22.6676 141.646 16.0837 162.487 12.0499 184.88C8.07819 206.933 6.76216 229.427 6.15696 251.728C5.88108 261.965 5.76178 272.204 5.69965 282.444C5.62508 294.603 5 309.705 5 321.863L5.00373 458.673L5 565.435L5.6313 705.152C5.6313 717.326 5.62633 729.499 5.69965 741.673C5.76178 751.928 5.88108 762.18 6.15821 772.431C6.76216 794.77 8.08068 817.304 12.0561 839.396C16.0887 861.806 22.6713 882.665 33.0467 903.026C43.2469 923.041 56.5724 941.353 72.4679 957.232C88.3634 973.11 106.692 986.417 126.725 996.606C147.12 1006.98 168.012 1013.55 190.461 1017.58C212.567 1021.55 235.119 1022.87 257.473 1023.47C267.736 1023.75 278 1023.86 288.267 1023.93C300.454 1024 312.64 1024 324.827 1024L464.814 1024H570.706L710.421 1024C722.585 1024 734.749 1024 746.912 1023.93C757.158 1023.86 767.402 1023.75 777.646 1023.47C799.965 1022.87 822.48 1021.55 844.554 1017.58C866.946 1013.55 887.787 1006.97 908.132 996.609C928.129 986.422 946.427 973.112 962.291 957.232C978.156 941.356 991.453 923.046 1001.63 903.034C1011.99 882.664 1018.57 861.795 1022.59 839.37C1026.56 817.287 1027.87 794.762 1028.47 772.431C1028.75 762.179 1028.87 751.926 1028.93 741.673C1029.01 729.499 1029 717.326 1029 705.152C1029 705.152 1028.99 567.902 1028.99 565.435V458.561C1028.99 456.74 1029 318.915 1029 318.915" fill="white"/>
</mask>
<g mask="url(#mask0_1488_247)">
</g>
<path d="M399.838 430.764C380.875 431.831 336.728 437.623 314.124 442.044C288.182 447.074 239.484 459.878 206.715 470.243C203.377 471.31 212.176 485.638 223.706 497.985C247.372 523.136 283.934 541.275 336.88 554.384C376.323 564.139 413.795 568.407 471.899 569.474C525.148 570.389 571.752 566.065 683.53 559.109C728.716 556.297 813.905 554.305 858.658 556.134C904.625 557.963 921.899 560.085 954.137 565.358C978.6 569.36 1023.54 578.505 1026.39 579.649C1031.51 580.792 1028.21 578.963 1024.11 576.791C1021.59 575.452 1016.53 573.285 1011.98 571.608C986.034 561.7 957.058 554.688 920.648 549.506C861.786 543.637 842.049 540.007 663.05 541.732C470.382 541.732 469.32 541.732 418.801 534.111C390.281 529.843 355.084 521.916 330.811 512.466C324.933 510.177 318.106 506.483 311.089 501.338C308.436 499.393 309.924 501.011 304.566 496.003C292.003 484.263 293.491 483.199 316.399 474.206C355.843 458.506 393.77 450.58 440.04 448.446C467.651 447.226 517.411 451.494 543.96 457.286C599.181 469.481 625.275 478.474 669.118 500.576C677.917 504.844 688.233 509.265 692.177 510.332C698.853 511.856 743.454 515.667 744.365 514.6C747.095 512.008 698.094 484.876 665.325 471.005C656.071 467.042 624.213 455.457 619.055 454.085C616.172 453.476 609.042 451.342 603.125 449.665C577.032 441.739 529.396 433.813 493.896 431.221C474.326 429.849 421.229 429.544 399.838 430.764Z" fill="white"/>
<path d="M127.286 490.405C104.732 494.549 92.0545 498.682 77.8261 505.281C69.3497 509.117 45.7367 522.468 44.223 524.156C43.7689 524.617 40.4389 526.919 36.6548 529.374C21.3669 539.349 1.6894 556.383 5.47353 556.383C5.77626 556.383 14.1013 552.239 23.7887 547.175C61.0246 527.839 91.9031 519.092 123.69 518.939C139.735 518.939 145.638 519.552 155.779 522.468C166.223 525.384 185.524 535.858 189.534 539.502C195.588 543.914 227.526 563.902 244.025 570.041C279.142 583.085 329.698 590.298 384.795 589.991C419.155 589.837 418.852 589.223 381.011 583.392C312.896 572.803 262.643 553.467 222.229 522.161C215.417 517.097 206.941 510.498 203.308 507.736C194.983 501.291 183.782 495.92 172.127 492.697C163.045 490.242 145 487.151 127.286 490.405Z" fill="white"/>
<defs>
<filter id="filter0_d_1488_247" x="0" y="0" width="1034" height="1034" filterUnits="userSpaceOnUse" color-interpolation-filters="sRGB">
<feFlood flood-opacity="0" result="BackgroundImageFix"/>
<feColorMatrix in="SourceAlpha" type="matrix" values="0 0 0 0 0 0 0 0 0 0 0 0 0 0 0 0 0 0 127 0" result="hardAlpha"/>
<feOffset dy="5"/>
<feGaussianBlur stdDeviation="2.5"/>
<feColorMatrix type="matrix" values="0 0 0 0 0 0 0 0 0 0 0 0 0 0 0 0 0 0 0.3 0"/>
<feBlend mode="normal" in2="BackgroundImageFix" result="effect1_dropShadow_1488_247"/>
<feBlend mode="normal" in="SourceGraphic" in2="effect1_dropShadow_1488_247" result="shape"/>
</filter>
</defs>
</svg>
