<svg xmlns="http://www.w3.org/2000/svg" version="1.1" xmlns:xlink="http://www.w3.org/1999/xlink" xmlns:svgjs="http://svgjs.dev/svgjs" viewBox="0 0 800 800"><defs><linearGradient x1="50%" y1="0%" x2="50%" y2="100%" id="vvvortex-grad"><stop stop-color="hsl(265, 55%, 30%)" stop-opacity="1" offset="0%"></stop><stop stop-color="hsl(265, 55%, 60%)" stop-opacity="1" offset="100%"></stop></linearGradient></defs><g stroke="url(#vvvortex-grad)" fill="none" stroke-linecap="round"><circle r="363" cx="400" cy="400" stroke-width="11" stroke-dasharray="34 49" stroke-dashoffset="25" transform="rotate(24, 400, 400)" opacity="0.51"></circle><circle r="346.5" cx="400" cy="400" stroke-width="11" stroke-dasharray="32 12" stroke-dashoffset="25" transform="rotate(288, 400, 400)" opacity="0.20"></circle><circle r="330" cx="400" cy="400" stroke-width="10" stroke-dasharray="47 49" stroke-dashoffset="25" transform="rotate(227, 400, 400)" opacity="0.77"></circle><circle r="313.5" cx="400" cy="400" stroke-width="10" stroke-dasharray="55 47" stroke-dashoffset="25" transform="rotate(195, 400, 400)" opacity="0.23"></circle><circle r="297" cx="400" cy="400" stroke-width="10" stroke-dasharray="31 42" stroke-dashoffset="25" transform="rotate(313, 400, 400)" opacity="0.14"></circle><circle r="280.5" cx="400" cy="400" stroke-width="10" stroke-dasharray="52 49" stroke-dashoffset="25" transform="rotate(327, 400, 400)" opacity="0.32"></circle><circle r="264" cx="400" cy="400" stroke-width="9" stroke-dasharray="52 35" stroke-dashoffset="25" transform="rotate(171, 400, 400)" opacity="0.60"></circle><circle r="247.5" cx="400" cy="400" stroke-width="9" stroke-dasharray="46 37" stroke-dashoffset="25" transform="rotate(336, 400, 400)" opacity="0.63"></circle><circle r="231" cx="400" cy="400" stroke-width="9" stroke-dasharray="38 50" stroke-dashoffset="25" transform="rotate(290, 400, 400)" opacity="0.07"></circle><circle r="214.5" cx="400" cy="400" stroke-width="8" stroke-dasharray="40 52" stroke-dashoffset="25" transform="rotate(72, 400, 400)" opacity="0.19"></circle><circle r="198" cx="400" cy="400" stroke-width="8" stroke-dasharray="25 13" stroke-dashoffset="25" transform="rotate(278, 400, 400)" opacity="0.41"></circle><circle r="181.5" cx="400" cy="400" stroke-width="8" stroke-dasharray="33 11" stroke-dashoffset="25" transform="rotate(353, 400, 400)" opacity="0.98"></circle><circle r="165" cx="400" cy="400" stroke-width="8" stroke-dasharray="27 33" stroke-dashoffset="25" transform="rotate(161, 400, 400)" opacity="0.76"></circle><circle r="148.5" cx="400" cy="400" stroke-width="7" stroke-dasharray="35 13" stroke-dashoffset="25" transform="rotate(101, 400, 400)" opacity="0.13"></circle><circle r="132" cx="400" cy="400" stroke-width="7" stroke-dasharray="29 13" stroke-dashoffset="25" transform="rotate(238, 400, 400)" opacity="0.12"></circle><circle r="115.5" cx="400" cy="400" stroke-width="7" stroke-dasharray="48 36" stroke-dashoffset="25" transform="rotate(205, 400, 400)" opacity="0.24"></circle><circle r="99" cx="400" cy="400" stroke-width="6" stroke-dasharray="40 25" stroke-dashoffset="25" transform="rotate(328, 400, 400)" opacity="0.87"></circle><circle r="82.5" cx="400" cy="400" stroke-width="6" stroke-dasharray="26 52" stroke-dashoffset="25" transform="rotate(273, 400, 400)" opacity="0.37"></circle><circle r="66" cx="400" cy="400" stroke-width="6" stroke-dasharray="42 19" stroke-dashoffset="25" transform="rotate(282, 400, 400)" opacity="0.87"></circle><circle r="49.5" cx="400" cy="400" stroke-width="6" stroke-dasharray="40 25" stroke-dashoffset="25" transform="rotate(168, 400, 400)" opacity="0.62"></circle><circle r="33" cx="400" cy="400" stroke-width="5" stroke-dasharray="48 30" stroke-dashoffset="25" transform="rotate(132, 400, 400)" opacity="0.63"></circle><circle r="16.5" cx="400" cy="400" stroke-width="5" stroke-dasharray="19 19" stroke-dashoffset="25" transform="rotate(299, 400, 400)" opacity="0.43"></circle></g></svg>
