<svg width="2715" height="205" viewBox="0 0 2715 205" fill="none" xmlns="http://www.w3.org/2000/svg">
<path d="M0.383001 166V10.51H93.251V29.893H21.044V78.883H87.713V98.053H21.47V166H0.383001ZM153.234 168.13C141.164 168.13 131.579 164.793 124.479 158.119C117.521 151.303 114.042 142.428 114.042 131.494C114.042 120.56 117.663 111.756 124.905 105.082C132.289 98.408 141.945 95.071 153.873 95.071H188.166V86.125C188.166 71.783 180.214 64.612 164.31 64.612C157.21 64.612 151.459 65.961 147.057 68.659C142.797 71.215 140.525 74.836 140.241 79.522H119.367C120.077 70.008 124.408 62.198 132.36 56.092C140.312 49.844 150.962 46.72 164.31 46.72C178.652 46.72 189.728 50.128 197.538 56.944C205.348 63.76 209.253 73.345 209.253 85.699V166H188.592V144.487H188.166C187.172 151.729 183.551 157.48 177.303 161.74C171.197 166 163.174 168.13 153.234 168.13ZM158.772 150.451C167.718 150.451 174.818 148.321 180.072 144.061C185.468 139.659 188.166 133.695 188.166 126.169V110.62H155.79C149.684 110.62 144.714 112.466 140.88 116.158C137.188 119.708 135.342 124.465 135.342 130.429C135.342 136.535 137.401 141.434 141.519 145.126C145.637 148.676 151.388 150.451 158.772 150.451ZM278.608 167.704C265.26 167.704 254.894 164.722 247.51 158.758C240.126 152.794 236.434 144.416 236.434 133.624H257.308C257.308 138.736 259.154 142.783 262.846 145.765C266.68 148.605 271.934 150.025 278.608 150.025H287.98C294.938 150.025 300.263 148.534 303.955 145.552C307.789 142.57 309.706 138.381 309.706 132.985C309.706 123.471 305.02 118.146 295.648 117.01L264.124 112.537C255.746 111.259 249.285 107.851 244.741 102.313C240.197 96.633 237.925 89.32 237.925 80.374C237.925 69.866 241.475 61.701 248.575 55.879C255.675 50.057 265.615 47.146 278.395 47.146H287.767C299.695 47.146 309.351 49.986 316.735 55.666C324.119 61.346 328.024 68.872 328.45 78.244H307.15C306.866 74.268 305.02 71.002 301.612 68.446C298.204 65.748 293.589 64.399 287.767 64.399H278.395C272.005 64.399 267.035 65.819 263.485 68.659C260.077 71.499 258.373 75.333 258.373 80.161C258.373 87.971 262.278 92.373 270.088 93.367L299.695 97.627C320.001 100.325 330.154 112.111 330.154 132.985C330.154 144.061 326.462 152.652 319.078 158.758C311.836 164.722 301.47 167.704 287.98 167.704H278.608ZM414.205 166C404.123 166 396.1 163.089 390.136 157.267C384.314 151.445 381.403 143.706 381.403 134.05V68.02H347.962V48.85H381.403V15.835H402.49V48.85H449.989V68.02H402.49V133.837C402.49 137.671 403.555 140.795 405.685 143.209C407.957 145.623 410.939 146.83 414.631 146.83H448.924V166H414.205ZM479.3 166V146.83H511.037V29.68H479.3V10.51H564.074V29.68H532.337V146.83H564.074V166H479.3ZM595.728 166V48.85H616.602V71.215H616.815C617.809 63.547 621.004 57.583 626.4 53.323C631.938 48.921 639.18 46.72 648.126 46.72C659.77 46.72 669.071 50.412 676.029 57.796C682.987 65.18 686.466 75.12 686.466 87.616V166H665.379V91.024C665.379 82.504 663.249 75.972 658.989 71.428C654.729 66.884 648.907 64.612 641.523 64.612C633.855 64.612 627.82 67.026 623.418 71.854C619.016 76.54 616.815 83.143 616.815 91.663V166H595.728ZM755.395 167.704C742.047 167.704 731.681 164.722 724.297 158.758C716.913 152.794 713.221 144.416 713.221 133.624H734.095C734.095 138.736 735.941 142.783 739.633 145.765C743.467 148.605 748.721 150.025 755.395 150.025H764.767C771.725 150.025 777.05 148.534 780.742 145.552C784.576 142.57 786.493 138.381 786.493 132.985C786.493 123.471 781.807 118.146 772.435 117.01L740.911 112.537C732.533 111.259 726.072 107.851 721.528 102.313C716.984 96.633 714.712 89.32 714.712 80.374C714.712 69.866 718.262 61.701 725.362 55.879C732.462 50.057 742.402 47.146 755.182 47.146H764.554C776.482 47.146 786.138 49.986 793.522 55.666C800.906 61.346 804.811 68.872 805.237 78.244H783.937C783.653 74.268 781.807 71.002 778.399 68.446C774.991 65.748 770.376 64.399 764.554 64.399H755.182C748.792 64.399 743.822 65.819 740.272 68.659C736.864 71.499 735.16 75.333 735.16 80.161C735.16 87.971 739.065 92.373 746.875 93.367L776.482 97.627C796.788 100.325 806.941 112.111 806.941 132.985C806.941 144.061 803.249 152.652 795.865 158.758C788.623 164.722 778.257 167.704 764.767 167.704H755.395ZM879.065 168.13C865.291 168.13 854.286 164.083 846.05 155.989C837.814 147.895 833.696 136.89 833.696 122.974V48.85H854.783V122.974C854.783 131.21 856.913 137.742 861.173 142.57C865.575 147.256 871.539 149.599 879.065 149.599C886.733 149.599 892.768 147.256 897.17 142.57C901.572 137.742 903.773 131.21 903.773 122.974V48.85H924.86V122.974C924.86 136.89 920.671 147.895 912.293 155.989C904.057 164.083 892.981 168.13 879.065 168.13ZM957.578 166V48.85H978.452V71.428H978.665C979.801 63.76 983.067 57.725 988.463 53.323C994.001 48.921 1001.31 46.72 1010.4 46.72C1022.47 46.72 1031.84 50.483 1038.52 58.009C1045.19 65.393 1048.53 75.83 1048.53 89.32V99.544H1027.44V89.533C1027.44 73.203 1019.42 65.038 1003.37 65.038C995.279 65.038 989.102 67.381 984.842 72.067C980.724 76.753 978.665 83.427 978.665 92.089V166H957.578ZM1117.67 168.13C1103.61 168.13 1092.25 163.941 1083.59 155.563C1075.07 147.185 1070.81 135.754 1070.81 121.27V93.58C1070.81 79.096 1075.07 67.665 1083.59 59.287C1092.25 50.909 1103.61 46.72 1117.67 46.72C1127.04 46.72 1135.21 48.637 1142.17 52.471C1149.27 56.163 1154.73 61.417 1158.57 68.233C1162.54 74.907 1164.53 82.717 1164.53 91.663V112.75H1091.47V122.974C1091.47 131.494 1093.82 138.168 1098.5 142.996C1103.19 147.824 1109.58 150.238 1117.67 150.238C1124.49 150.238 1130.1 148.96 1134.5 146.404C1138.9 143.848 1141.53 140.298 1142.38 135.754H1163.47C1162.05 145.694 1157.15 153.575 1148.77 159.397C1140.39 165.219 1130.03 168.13 1117.67 168.13ZM1091.47 91.663V97.201H1143.87V91.663C1143.87 82.717 1141.6 75.83 1137.05 71.002C1132.51 66.174 1126.05 63.76 1117.67 63.76C1109.29 63.76 1102.83 66.174 1098.29 71.002C1093.74 75.83 1091.47 82.717 1091.47 91.663ZM1345.63 166V29.68H1303.45V10.51H1408.68V29.68H1366.71V166H1345.63ZM1475.26 168.13C1461.2 168.13 1449.84 163.941 1441.18 155.563C1432.66 147.185 1428.4 135.754 1428.4 121.27V93.58C1428.4 79.096 1432.66 67.665 1441.18 59.287C1449.84 50.909 1461.2 46.72 1475.26 46.72C1484.63 46.72 1492.8 48.637 1499.76 52.471C1506.86 56.163 1512.32 61.417 1516.16 68.233C1520.13 74.907 1522.12 82.717 1522.12 91.663V112.75H1449.06V122.974C1449.06 131.494 1451.41 138.168 1456.09 142.996C1460.78 147.824 1467.17 150.238 1475.26 150.238C1482.08 150.238 1487.69 148.96 1492.09 146.404C1496.49 143.848 1499.12 140.298 1499.97 135.754H1521.06C1519.64 145.694 1514.74 153.575 1506.36 159.397C1497.98 165.219 1487.62 168.13 1475.26 168.13ZM1449.06 91.663V97.201H1501.46V91.663C1501.46 82.717 1499.19 75.83 1494.64 71.002C1490.1 66.174 1483.64 63.76 1475.26 63.76C1466.88 63.76 1460.42 66.174 1455.88 71.002C1451.33 75.83 1449.06 82.717 1449.06 91.663ZM1596.16 168.13C1581.82 168.13 1570.32 164.154 1561.66 156.202C1552.99 148.108 1548.66 137.032 1548.66 122.974V91.663C1548.66 77.747 1552.99 66.813 1561.66 58.861C1570.32 50.767 1581.82 46.72 1596.16 46.72C1609.94 46.72 1621.01 50.412 1629.39 57.796C1637.91 65.038 1642.38 74.978 1642.81 87.616H1621.94C1621.51 80.516 1618.95 75.049 1614.27 71.215C1609.72 67.239 1603.69 65.251 1596.16 65.251C1588.07 65.251 1581.61 67.594 1576.78 72.28C1572.09 76.824 1569.75 83.285 1569.75 91.663V122.974C1569.75 131.494 1572.09 138.026 1576.78 142.57C1581.61 147.114 1588.07 149.386 1596.16 149.386C1603.83 149.386 1609.94 147.469 1614.48 143.635C1619.02 139.801 1621.51 134.334 1621.94 127.234H1642.81C1642.38 139.872 1637.91 149.883 1629.39 157.267C1621.01 164.509 1609.94 168.13 1596.16 168.13ZM1668.5 166V10.51H1689.59V48.85L1689.37 71.215H1689.59C1690.58 63.547 1693.78 57.583 1699.17 53.323C1704.71 48.921 1711.95 46.72 1720.9 46.72C1732.54 46.72 1741.84 50.412 1748.8 57.796C1755.76 65.18 1759.24 75.12 1759.24 87.616V166H1738.15V90.811C1738.15 82.433 1736.02 75.972 1731.76 71.428C1727.5 66.884 1721.68 64.612 1714.29 64.612C1706.63 64.612 1700.59 67.026 1696.19 71.854C1691.79 76.54 1689.59 83.143 1689.59 91.663V166H1668.5ZM1787.7 166V48.85H1808.57V71.215H1808.78C1809.78 63.547 1812.97 57.583 1818.37 53.323C1823.91 48.921 1831.15 46.72 1840.09 46.72C1851.74 46.72 1861.04 50.412 1868 57.796C1874.95 65.18 1878.43 75.12 1878.43 87.616V166H1857.35V91.024C1857.35 82.504 1855.22 75.972 1850.96 71.428C1846.7 66.884 1840.87 64.612 1833.49 64.612C1825.82 64.612 1819.79 67.026 1815.39 71.854C1810.98 76.54 1808.78 83.143 1808.78 91.663V166H1787.7ZM1952.05 167.704C1937.71 167.704 1926.28 163.586 1917.76 155.35C1909.38 147.114 1905.19 135.612 1905.19 120.844V94.006C1905.19 79.238 1909.38 67.736 1917.76 59.5C1926.28 51.264 1937.71 47.146 1952.05 47.146C1966.39 47.146 1977.75 51.264 1986.13 59.5C1994.65 67.736 1998.91 79.238 1998.91 94.006V120.844C1998.91 135.612 1994.65 147.114 1986.13 155.35C1977.75 163.586 1966.39 167.704 1952.05 167.704ZM1952.05 149.173C1960 149.173 1966.25 146.972 1970.79 142.57C1975.48 138.026 1977.82 131.423 1977.82 122.761V92.089C1977.82 83.427 1975.48 76.895 1970.79 72.493C1966.25 67.949 1960 65.677 1952.05 65.677C1944.1 65.677 1937.78 67.949 1933.09 72.493C1928.55 76.895 1926.28 83.427 1926.28 92.089V122.761C1926.28 131.423 1928.55 138.026 1933.09 142.57C1937.78 146.972 1944.1 149.173 1952.05 149.173ZM2088.71 166C2078.06 166 2069.54 162.876 2063.15 156.628C2056.76 150.38 2053.57 142.073 2053.57 131.707V29.68H2013.52V10.51H2074.65V131.494C2074.65 136.18 2075.93 139.943 2078.49 142.783C2081.19 145.481 2084.81 146.83 2089.35 146.83H2124.92V166H2088.71ZM2190.44 167.704C2176.1 167.704 2164.67 163.586 2156.15 155.35C2147.77 147.114 2143.58 135.612 2143.58 120.844V94.006C2143.58 79.238 2147.77 67.736 2156.15 59.5C2164.67 51.264 2176.1 47.146 2190.44 47.146C2204.78 47.146 2216.14 51.264 2224.52 59.5C2233.04 67.736 2237.3 79.238 2237.3 94.006V120.844C2237.3 135.612 2233.04 147.114 2224.52 155.35C2216.14 163.586 2204.78 167.704 2190.44 167.704ZM2190.44 149.173C2198.39 149.173 2204.64 146.972 2209.19 142.57C2213.87 138.026 2216.22 131.423 2216.22 122.761V92.089C2216.22 83.427 2213.87 76.895 2209.19 72.493C2204.64 67.949 2198.39 65.677 2190.44 65.677C2182.49 65.677 2176.17 67.949 2171.49 72.493C2166.94 76.895 2164.67 83.427 2164.67 92.089V122.761C2164.67 131.423 2166.94 138.026 2171.49 142.57C2176.17 146.972 2182.49 149.173 2190.44 149.173ZM2279.61 204.34V185.596H2312.62C2319.01 185.596 2324.12 183.75 2327.96 180.058C2331.79 176.508 2333.71 171.609 2333.71 165.361V155.563L2334.13 135.328H2333.92C2332.5 142.57 2329.02 148.179 2323.48 152.155C2318.09 156.131 2311.13 158.119 2302.61 158.119C2290.54 158.119 2281.03 154.285 2274.07 146.617C2267.11 138.807 2263.63 128.157 2263.63 114.667V90.598C2263.63 77.108 2267.11 66.458 2274.07 58.648C2281.03 50.696 2290.54 46.72 2302.61 46.72C2310.85 46.72 2317.66 48.708 2323.06 52.684C2328.6 56.66 2332.15 62.127 2333.71 69.085H2333.92V48.85H2354.58V165.574C2354.58 177.502 2350.82 186.945 2343.29 193.903C2335.77 200.861 2325.54 204.34 2312.62 204.34H2279.61ZM2309.21 140.44C2316.74 140.44 2322.7 138.097 2327.11 133.411C2331.51 128.725 2333.71 122.122 2333.71 113.602V91.663C2333.71 83.285 2331.51 76.753 2327.11 72.067C2322.7 67.381 2316.74 65.038 2309.21 65.038C2301.4 65.038 2295.37 67.31 2291.11 71.854C2286.85 76.256 2284.72 82.291 2284.72 89.959V115.519C2284.72 123.187 2286.85 129.293 2291.11 133.837C2295.37 138.239 2301.4 140.44 2309.21 140.44ZM2382.62 166V146.83H2423.72V68.02H2386.88V48.85H2444.81V146.83H2483.36V166H2382.62ZM2432.24 28.189C2427.42 28.189 2423.58 26.982 2420.74 24.568C2417.9 22.012 2416.48 18.604 2416.48 14.344C2416.48 9.94199 2417.9 6.46299 2420.74 3.90699C2423.58 1.35099 2427.42 0.0729907 2432.24 0.0729907C2437.07 0.0729907 2440.91 1.35099 2443.75 3.90699C2446.59 6.46299 2448.01 9.94199 2448.01 14.344C2448.01 18.604 2446.59 22.012 2443.75 24.568C2440.91 26.982 2437.07 28.189 2432.24 28.189ZM2548.03 168.13C2533.97 168.13 2522.61 163.941 2513.95 155.563C2505.43 147.185 2501.17 135.754 2501.17 121.27V93.58C2501.17 79.096 2505.43 67.665 2513.95 59.287C2522.61 50.909 2533.97 46.72 2548.03 46.72C2557.4 46.72 2565.57 48.637 2572.53 52.471C2579.63 56.163 2585.09 61.417 2588.93 68.233C2592.9 74.907 2594.89 82.717 2594.89 91.663V112.75H2521.83V122.974C2521.83 131.494 2524.18 138.168 2528.86 142.996C2533.55 147.824 2539.94 150.238 2548.03 150.238C2554.85 150.238 2560.46 148.96 2564.86 146.404C2569.26 143.848 2571.89 140.298 2572.74 135.754H2593.83C2592.41 145.694 2587.51 153.575 2579.13 159.397C2570.75 165.219 2560.39 168.13 2548.03 168.13ZM2521.83 91.663V97.201H2574.23V91.663C2574.23 82.717 2571.96 75.83 2567.42 71.002C2562.87 66.174 2556.41 63.76 2548.03 63.76C2539.65 63.76 2533.19 66.174 2528.65 71.002C2524.11 75.83 2521.83 82.717 2521.83 91.663ZM2662.54 167.704C2649.2 167.704 2638.83 164.722 2631.45 158.758C2624.06 152.794 2620.37 144.416 2620.37 133.624H2641.24C2641.24 138.736 2643.09 142.783 2646.78 145.765C2650.62 148.605 2655.87 150.025 2662.54 150.025H2671.92C2678.87 150.025 2684.2 148.534 2687.89 145.552C2691.72 142.57 2693.64 138.381 2693.64 132.985C2693.64 123.471 2688.96 118.146 2679.58 117.01L2648.06 112.537C2639.68 111.259 2633.22 107.851 2628.68 102.313C2624.13 96.633 2621.86 89.32 2621.86 80.374C2621.86 69.866 2625.41 61.701 2632.51 55.879C2639.61 50.057 2649.55 47.146 2662.33 47.146H2671.7C2683.63 47.146 2693.29 49.986 2700.67 55.666C2708.05 61.346 2711.96 68.872 2712.39 78.244H2691.09C2690.8 74.268 2688.96 71.002 2685.55 68.446C2682.14 65.748 2677.52 64.399 2671.7 64.399H2662.33C2655.94 64.399 2650.97 65.819 2647.42 68.659C2644.01 71.499 2642.31 75.333 2642.31 80.161C2642.31 87.971 2646.21 92.373 2654.02 93.367L2683.63 97.627C2703.94 100.325 2714.09 112.111 2714.09 132.985C2714.09 144.061 2710.4 152.652 2703.01 158.758C2695.77 164.722 2685.41 167.704 2671.92 167.704H2662.54Z" fill="#6F7385"/>
</svg>
