<svg width="805" height="450" viewBox="0 0 805 450" fill="none" xmlns="http://www.w3.org/2000/svg">
<g clip-path="url(#clip0_1558_254)">
<path d="M621.005 113.461C620.827 105.974 625.804 91 647.137 91C668.469 91 675.935 105.974 677.002 113.461V186.728C678.78 177.458 693.961 158.918 740.465 158.918C786.97 158.918 802.862 194.215 804.996 211.863V338.074C805.173 345.382 800.089 360 778.33 360C756.571 360 750.065 345.382 749.532 338.074V231.115C749.176 222.737 741.319 205.873 712.733 205.445C684.148 205.017 677.002 222.38 677.002 231.115V338.074C675.757 345.382 668.042 360 647.137 360C626.231 360 621.005 345.382 621.005 338.074V113.461Z" fill="url(#paint0_linear_1558_254)"/>
<path fill-rule="evenodd" clip-rule="evenodd" d="M503.857 93C494.238 93.3569 475 99.3172 475 120.303V342.475C475 348.364 482.802 358 503.323 358C520.423 358 527.37 348.899 528.439 342.475C529.508 336.051 528.439 252.535 528.439 252.535C528.439 252.535 587.222 251.465 611.804 251.465C636.386 251.465 677 225.446 677 170.626C677 115.806 632.899 93 610.989 93H503.857ZM621.958 170.626C621.958 145.358 605.213 138.684 596.841 138.505H528.439V204.889H596.841C603.788 204.889 621.958 195.895 621.958 170.626Z" fill="url(#paint1_linear_1558_254)"/>
<path fill-rule="evenodd" clip-rule="evenodd" d="M409.267 104C368.845 104 288 128.247 288 225.233C288 322.219 368.845 346.822 409.267 347C449.511 346.822 530 322.219 530 225.233C530 128.247 449.511 104 409.267 104ZM477.113 225.233C475.83 173.108 431.348 159.009 409.267 158.475C386.474 158.475 339.808 171.837 340.887 225.233C341.956 278.106 379.351 294.127 409.267 294.127C435.444 293.059 478.395 277.358 477.113 225.233Z" fill="url(#paint2_linear_1558_254)"/>
<path d="M132.267 317.082C118.222 314.591 89.1031 315.475 77.3332 329.359C62.4 346.975 64 373.488 64 385.943C76.6223 388.078 100.28 391.281 122.133 368.861C139.2 351.352 135.467 326.335 132.267 317.082Z" fill="url(#paint3_linear_1558_254)"/>
<path d="M225.067 294.128C202.489 293.95 157.333 280.249 157.333 226.868C157.333 173.488 202.489 160.854 225.067 161.21C234.667 161.032 255.972 164.618 268.8 175.623C273.6 179.741 275.2 178.292 277.867 176.691C280.189 175.296 299.556 154.271 308.267 143.594C309.333 141.993 310.4 138.79 308.267 136.655C306.667 135.054 217.6 66.1922 143.467 136.655C83.2948 193.848 104.356 265.658 122.133 294.128C134.4 312.278 172.16 346.975 225.067 346.975C277.973 346.975 305.945 317.288 322.667 295.196C336 277.58 343.997 243.95 344 208.185C344 206.726 342.674 202.847 336.533 202.847C329.707 202.847 231.822 203.381 181.333 203.381C179.2 203.381 175.467 204.448 175.467 210.854V243.95C175.467 246.085 177.067 249.288 181.333 249.288H290.133C288.533 264.235 273.28 294.128 225.067 294.128Z" fill="url(#paint4_linear_1558_254)"/>
<path d="M93.8667 226.868C89.2444 217.082 73.4933 197.509 47.4667 197.509C21.44 197.509 4.97778 217.082 0 226.868C5.86671 235.765 23.5734 253.559 47.4667 253.559C71.3599 253.559 88.3555 235.765 93.8667 226.868Z" fill="url(#paint5_linear_1558_254)"/>
<path d="M134.4 132.918C135.289 121.886 132.48 94.6975 116.267 78.4697C100.053 62.242 73.9554 62.8114 62.9332 65.1246C62.2221 76.3345 58.6666 96.6192 77.3332 115.302C94.9332 132.918 121.067 132.918 134.4 132.918Z" fill="url(#paint6_linear_1558_254)"/>
<path d="M225.067 95.0178C233.956 90.2135 251.733 74.0925 251.733 48.0427C251.733 21.9929 233.956 5.16014 225.067 0C215.822 4.80427 197.333 20.0712 197.333 46.9751C197.333 73.879 215.822 90.5694 225.067 95.0178Z" fill="url(#paint7_linear_1558_254)"/>
<path d="M225.067 358.185C215.822 361.032 197.333 374.306 197.333 404.626C197.333 434.947 215.822 447.509 225.067 450C233.956 446.797 251.733 433.238 251.733 404.626C251.733 376.014 233.956 361.744 225.067 358.185Z" fill="url(#paint8_linear_1558_254)"/>
<path d="M394.141 390.528C405.531 371.555 450.733 341.907 540.427 375.101C630.12 408.295 682.436 372.843 697.385 350.678C702.407 343.231 707 346.907 707 346.907C707 346.907 671.763 440 590.612 440C509.461 440 499.851 394.784 419.767 395.848C413.539 395.848 398.946 396.912 394.141 396.911C390.254 396.911 392.539 393.196 394.141 390.528Z" fill="url(#paint9_linear_1558_254)"/>
</g>
<defs>
<linearGradient id="paint0_linear_1558_254" x1="621" y1="181.016" x2="805.193" y2="269.584" gradientUnits="userSpaceOnUse">
<stop offset="0.121054" stop-color="#0F172A" stop-opacity="0.75"/>
<stop offset="0.26" stop-color="#0F172A" stop-opacity="0.7"/>
<stop offset="1" stop-color="#0F172A"/>
</linearGradient>
<linearGradient id="paint1_linear_1558_254" x1="677" y1="95.9748" x2="436.575" y2="366.672" gradientUnits="userSpaceOnUse">
<stop offset="0.226821" stop-color="#0F172A"/>
<stop offset="1" stop-color="#0F172A" stop-opacity="0.51"/>
</linearGradient>
<linearGradient id="paint2_linear_1558_254" x1="530" y1="216.006" x2="288.001" y2="235.005" gradientUnits="userSpaceOnUse">
<stop stop-color="#0F172A" stop-opacity="0.6"/>
<stop offset="1" stop-color="#0F172A" stop-opacity="0.9"/>
</linearGradient>
<linearGradient id="paint3_linear_1558_254" x1="324.8" y1="187.367" x2="5.29597" y2="272.101" gradientUnits="userSpaceOnUse">
<stop stop-color="#0F172A" stop-opacity="0.7"/>
<stop offset="1" stop-color="#0F172A"/>
</linearGradient>
<linearGradient id="paint4_linear_1558_254" x1="324.8" y1="187.367" x2="5.29597" y2="272.101" gradientUnits="userSpaceOnUse">
<stop stop-color="#0F172A" stop-opacity="0.7"/>
<stop offset="1" stop-color="#0F172A"/>
</linearGradient>
<linearGradient id="paint5_linear_1558_254" x1="324.8" y1="187.367" x2="5.29597" y2="272.101" gradientUnits="userSpaceOnUse">
<stop stop-color="#0F172A" stop-opacity="0.7"/>
<stop offset="1" stop-color="#0F172A"/>
</linearGradient>
<linearGradient id="paint6_linear_1558_254" x1="324.8" y1="187.367" x2="5.29597" y2="272.101" gradientUnits="userSpaceOnUse">
<stop stop-color="#0F172A" stop-opacity="0.7"/>
<stop offset="1" stop-color="#0F172A"/>
</linearGradient>
<linearGradient id="paint7_linear_1558_254" x1="324.8" y1="187.367" x2="5.29597" y2="272.101" gradientUnits="userSpaceOnUse">
<stop stop-color="#0F172A" stop-opacity="0.7"/>
<stop offset="1" stop-color="#0F172A"/>
</linearGradient>
<linearGradient id="paint8_linear_1558_254" x1="324.8" y1="187.367" x2="5.29597" y2="272.101" gradientUnits="userSpaceOnUse">
<stop stop-color="#0F172A" stop-opacity="0.7"/>
<stop offset="1" stop-color="#0F172A"/>
</linearGradient>
<linearGradient id="paint9_linear_1558_254" x1="707" y1="359.38" x2="403.793" y2="404.727" gradientUnits="userSpaceOnUse">
<stop stop-color="#0F172A"/>
<stop offset="0.937785" stop-color="#0F172A" stop-opacity="0.62"/>
</linearGradient>
<clipPath id="clip0_1558_254">
<rect width="805" height="450" fill="white"/>
</clipPath>
</defs>
</svg>
