<svg width="1200" height="1200" viewBox="0 0 1200 1200" fill="none" xmlns="http://www.w3.org/2000/svg">
<g clip-path="url(#clip0_1557_272)">
<g clip-path="url(#clip1_1557_272)">
<path d="M1165.53 166H200.467C181.431 166 166 181.431 166 200.467V1165.53C166 1184.57 181.431 1200 200.467 1200H1165.53C1184.57 1200 1200 1184.57 1200 1165.53V200.467C1200 181.431 1184.57 166 1165.53 166Z" fill="#CBD5E1"/>
</g>
<g clip-path="url(#clip2_1557_272)">
<path d="M1000.5 0H34.5C15.4462 0 0 15.4462 0 34.5V1000.5C0 1019.55 15.4462 1035 34.5 1035H1000.5C1019.55 1035 1035 1019.55 1035 1000.5V34.5C1035 15.4462 1019.55 0 1000.5 0Z" fill="#0F172A"/>
<path d="M158.125 893.646V141.833C158.125 139.716 159.841 138 161.958 138H873.042C875.159 138 876.875 139.716 876.875 141.833V298.318C876.875 300.44 875.15 302.16 873.027 302.151L339.624 300.147C337.501 300.139 335.776 301.858 335.776 303.98V475.205C335.776 477.322 337.492 479.038 339.609 479.038H775.292C777.409 479.038 779.125 480.755 779.125 482.872V627.681C779.125 629.798 777.409 631.514 775.292 631.514H339.609C337.492 631.514 335.776 633.23 335.776 635.347V893.646C335.776 895.763 334.061 897.479 331.943 897.479H161.958C159.841 897.479 158.125 895.763 158.125 893.646Z" fill="#FAFAFA" stroke="#18181B"/>
</g>
</g>
<defs>
<clipPath id="clip0_1557_272">
<rect width="1200" height="1200" fill="white"/>
</clipPath>
<clipPath id="clip1_1557_272">
<rect width="1034" height="1034" fill="white" transform="translate(166 166)"/>
</clipPath>
<clipPath id="clip2_1557_272">
<rect width="1035" height="1035" fill="white"/>
</clipPath>
</defs>
</svg>
