<svg width="1024" height="1024" viewBox="0 0 1024 1024" fill="none" xmlns="http://www.w3.org/2000/svg">
<g filter="url(#filter0_f_1488_253)">
<path d="M250.398 227.816H933.016V363.559H405.184V563.266H853.426V690.707H405.184V991H250.398V227.816Z" fill="#334155" fill-opacity="0.62"/>
</g>
<mask id="path-2-outside-1_1488_253" maskUnits="userSpaceOnUse" x="203" y="178" width="686" height="766" fill="black">
<rect fill="white" x="203" y="178" width="686" height="766"/>
<path d="M204.398 179.816H887.016V315.559H359.184V515.266H807.426V642.707H359.184V943H204.398V179.816Z"/>
</mask>
<path d="M204.398 179.816H887.016V315.559H359.184V515.266H807.426V642.707H359.184V943H204.398V179.816Z" fill="#6F7385"/>
<path d="M204.398 179.816V178.816H203.398V179.816H204.398ZM887.016 179.816H888.016V178.816H887.016V179.816ZM887.016 315.559V316.559H888.016V315.559H887.016ZM359.184 315.559V314.559H358.184V315.559H359.184ZM359.184 515.266H358.184V516.266H359.184V515.266ZM807.426 515.266H808.426V514.266H807.426V515.266ZM807.426 642.707V643.707H808.426V642.707H807.426ZM359.184 642.707V641.707H358.184V642.707H359.184ZM359.184 943V944H360.184V943H359.184ZM204.398 943H203.398V944H204.398V943ZM204.398 180.816H887.016V178.816H204.398V180.816ZM886.016 179.816V315.559H888.016V179.816H886.016ZM887.016 314.559H359.184V316.559H887.016V314.559ZM358.184 315.559V515.266H360.184V315.559H358.184ZM359.184 516.266H807.426V514.266H359.184V516.266ZM806.426 515.266V642.707H808.426V515.266H806.426ZM807.426 641.707H359.184V643.707H807.426V641.707ZM358.184 642.707V943H360.184V642.707H358.184ZM359.184 942H204.398V944H359.184V942ZM205.398 943V179.816H203.398V943H205.398Z" fill="black" mask="url(#path-2-outside-1_1488_253)"/>
<defs>
<filter id="filter0_f_1488_253" x="230.098" y="207.516" width="723.217" height="803.784" filterUnits="userSpaceOnUse" color-interpolation-filters="sRGB">
<feFlood flood-opacity="0" result="BackgroundImageFix"/>
<feBlend mode="normal" in="SourceGraphic" in2="BackgroundImageFix" result="shape"/>
<feGaussianBlur stdDeviation="10.15" result="effect1_foregroundBlur_1488_253"/>
</filter>
</defs>
</svg>
