<svg width="750" height="793" viewBox="0 0 750 793" fill="none" xmlns="http://www.w3.org/2000/svg">
<path d="M0 788.5V4C0 1.79086 1.79084 0 3.99998 0H746C748.209 0 750 1.79086 750 4V167.288C750 169.503 748.2 171.297 745.985 171.288L189.39 169.197C187.175 169.189 185.375 170.982 185.375 173.197V351.866C185.375 354.075 187.166 355.866 189.375 355.866H644C646.209 355.866 648 357.657 648 359.866V510.971C648 513.18 646.209 514.971 644 514.971H189.375C187.166 514.971 185.375 516.762 185.375 518.971V788.5C185.375 790.709 183.585 792.5 181.375 792.5H4C1.79086 792.5 0 790.709 0 788.5Z" fill="#0F172A"/>
</svg>
