<svg width="752" height="794" viewBox="0 0 752 794" fill="none" xmlns="http://www.w3.org/2000/svg">
<path d="M1 789.5V5C1 2.79086 2.79084 1 4.99998 1H747C749.209 1 751 2.79086 751 5V168.288C751 170.503 749.2 172.297 746.985 172.288L190.39 170.197C188.175 170.189 186.375 171.982 186.375 174.197V352.866C186.375 355.075 188.166 356.866 190.375 356.866H645C647.209 356.866 649 358.657 649 360.866V511.971C649 514.18 647.209 515.971 645 515.971H190.375C188.166 515.971 186.375 517.762 186.375 519.971V789.5C186.375 791.709 184.585 793.5 182.375 793.5H5C2.79086 793.5 1 791.709 1 789.5Z" fill="#D9D9D9" stroke="#18181B"/>
</svg>
