<svg width="28" height="28" viewBox="0 0 28 28" fill="none" xmlns="http://www.w3.org/2000/svg" open="" class="MainSideBarstyle__SideBarLogoMinimized-sc-16nvw2-1 eyuVzE"><g clip-path="url(#clip0_64_9060)"><path d="M24.6239 16.3027C22.8239 18.5707 20.8799 21.1627 16.9919 21.1627C13.5191 21.1627 12.2252 18.0995 12.1343 15.6111C12.8952 17.22 14.3828 18.523 16.7039 18.4627C21.1679 18.3187 24.2279 14.2867 24.2279 10.6147C24.2279 6.22272 20.9519 3.05473 15.2639 3.05473C11.1959 3.05473 6.15596 4.60273 2.84397 7.05072C2.80797 9.57071 4.21197 12.8467 4.71597 12.4867C7.58724 10.4223 9.86406 9.09332 12.0724 8.42698C8.80343 12.0723 0.960274 20.5366 -1.52588e-05 22.0267C0.107984 23.3947 1.79998 27.0666 2.62798 27.0666C2.87997 27.0666 3.09597 26.9226 3.34797 26.6706C5.7125 24.0139 7.64004 21.6319 9.35454 19.3361C9.59529 22.701 11.2499 26.8146 15.8759 26.8146C20.0159 26.8146 24.1199 23.8267 25.9919 17.0947C26.2079 16.2667 25.1999 15.6187 24.6239 16.3027ZM19.9079 10.8667C19.9079 12.9907 17.8199 14.0347 15.9119 14.0347C14.892 14.0347 14.1086 13.7669 13.489 13.4189C14.629 11.6926 15.7576 9.92248 16.97 8.02753C19.1079 8.38938 19.9079 9.57772 19.9079 10.8667Z" fill="#D0D2D7"></path></g><defs><clipPath id="clip0_64_9060"><rect width="28" height="28" fill="white"></rect></clipPath></defs></svg>
