<svg width="600" height="600" viewBox="0 0 600 600" fill="none" xmlns="http://www.w3.org/2000/svg">
<g filter="url(#filter0_f_1582_307)">
<path d="M309.5 473C304.529 473 294.5 396.165 294.5 302C294.5 207.835 304.029 132 309 132" stroke="url(#paint0_linear_1582_307)" stroke-width="2" stroke-dasharray="4 4"/>
</g>
<path d="M315 436C311.2 436 307 374.439 307 298.5C307 222.561 311 165.614 314.618 161" stroke="url(#paint1_linear_1582_307)"/>
<g filter="url(#filter1_f_1582_307)">
<path d="M358 155C352.532 155 347 219.919 347 300C347 380.081 352.532 445 358 445" stroke="url(#paint2_linear_1582_307)" stroke-opacity="0.5" stroke-width="2" stroke-dasharray="3 3"/>
</g>
<defs>
<filter id="filter0_f_1582_307" x="291.5" y="129" width="20.2119" height="347" filterUnits="userSpaceOnUse" color-interpolation-filters="sRGB">
<feFlood flood-opacity="0" result="BackgroundImageFix"/>
<feBlend mode="normal" in="SourceGraphic" in2="BackgroundImageFix" result="shape"/>
<feGaussianBlur stdDeviation="1" result="effect1_foregroundBlur_1582_307"/>
</filter>
<filter id="filter1_f_1582_307" x="344" y="152" width="16.0981" height="296" filterUnits="userSpaceOnUse" color-interpolation-filters="sRGB">
<feFlood flood-opacity="0" result="BackgroundImageFix"/>
<feBlend mode="normal" in="SourceGraphic" in2="BackgroundImageFix" result="shape"/>
<feGaussianBlur stdDeviation="1" result="effect1_foregroundBlur_1582_307"/>
</filter>
<linearGradient id="paint0_linear_1582_307" x1="304" y1="132" x2="300" y2="478.5" gradientUnits="userSpaceOnUse">
<stop stop-color="#D4D4D8" stop-opacity="0.17"/>
<stop offset="0.5" stop-color="#D4D4D8" stop-opacity="0.25"/>
<stop offset="1" stop-color="#D4D4D8" stop-opacity="0.41"/>
</linearGradient>
<linearGradient id="paint1_linear_1582_307" x1="323.842" y1="147.77" x2="322.073" y2="440.522" gradientUnits="userSpaceOnUse">
<stop stop-color="#D4D4D8" stop-opacity="0"/>
<stop offset="0.5" stop-color="#D4D4D8" stop-opacity="0.25"/>
<stop offset="1" stop-color="#D4D4D8" stop-opacity="0"/>
</linearGradient>
<linearGradient id="paint2_linear_1582_307" x1="341.5" y1="148" x2="354.196" y2="462.25" gradientUnits="userSpaceOnUse">
<stop stop-color="#D9D9D9" stop-opacity="0.15"/>
<stop offset="1" stop-color="#09090B" stop-opacity="0.5"/>
</linearGradient>
</defs>
</svg>
